<svg id="Symbols" xmlns="http://www.w3.org/2000/svg" width="23.393" height="23.392" viewBox="0 0 23.393 23.392">
  <g id="facebook-square-brands">
    <path id="Path" d="M20.886,0H2.506A2.506,2.506,0,0,0,0,2.506V20.886a2.506,2.506,0,0,0,2.506,2.506H9.673V15.439H6.383V11.7h3.29V8.843c0-3.245,1.932-5.038,4.891-5.038a19.928,19.928,0,0,1,2.9.253V7.243H15.83a1.872,1.872,0,0,0-2.111,2.022V11.7h3.591l-.574,3.743H13.719v7.953h7.166a2.506,2.506,0,0,0,2.506-2.506V2.506A2.506,2.506,0,0,0,20.886,0Z" transform="translate(0 0)" fill="#465f70"/>
  </g>
</svg>
