<svg id="NutrienAS_Logo" xmlns="http://www.w3.org/2000/svg" xmlns:xlink="http://www.w3.org/1999/xlink" width="108.59" height="43.922" viewBox="0 0 108.59 43.922">
  <defs>
    <linearGradient id="linear-gradient" x1="0.392" y1="0.908" x2="0.619" y2="0.067" gradientUnits="objectBoundingBox">
      <stop offset="0.004" stop-color="#4e9b47"/>
      <stop offset="0.308" stop-color="#6ca944"/>
      <stop offset="1" stop-color="#a5ce3a"/>
    </linearGradient>
  </defs>
  <g id="Group_3289" data-name="Group 3289" transform="translate(0 29.135)">
    <path id="Path_5444" data-name="Path 5444" d="M7.174,61.046a.6.6,0,0,0-.439-.146A2.075,2.075,0,0,0,6.2,61c-.049,0-.049.049-.1.1L0,71.344v.1c.049.049.1.1.146.1h.927c.049,0,.1-.049.146-.1L2.879,68.66H7.223l.39,2.733c0,.1.1.146.2.146h.976a.173.173,0,0,0,.2-.2l-1.61-9.907A.735.735,0,0,0,7.174,61.046Zm-.146,6.491H3.514l2.831-4.831Z" transform="translate(0 -60.266)" fill="#010101"/>
    <path id="Path_5445" data-name="Path 5445" d="M27.983,67.2h-.2a1.028,1.028,0,0,0-.634.244,1.294,1.294,0,0,0-.244.293c-.049-.1-.146-.146-.293-.244a3.249,3.249,0,0,0-.586-.293,2.423,2.423,0,0,0-.878-.1,3.639,3.639,0,0,0-1.854.488,4.84,4.84,0,0,0-1.513,1.318,6.326,6.326,0,0,0-.878,2.1,3.76,3.76,0,0,0,.293,2.831,2.5,2.5,0,0,0,2.245,1.025,3.37,3.37,0,0,0,1.22-.2,3.156,3.156,0,0,0,.781-.439c-.1.488-.244.927-.342,1.269a2.47,2.47,0,0,1-2.635,1.659,2.327,2.327,0,0,1-1.415-.39,1,1,0,0,1-.39-.39c-.049-.049-.049-.1-.1-.1a.179.179,0,0,0-.146.049,2.123,2.123,0,0,0-.342.293.62.62,0,0,0-.2.342.588.588,0,0,0,.2.586,1.841,1.841,0,0,0,.927.488,4.024,4.024,0,0,0,1.366.2,3.841,3.841,0,0,0,3.855-2.2,9.006,9.006,0,0,0,.537-1.806l1.464-6.783a.179.179,0,0,0-.049-.146A.534.534,0,0,1,27.983,67.2Zm-1.464,1.708-.83,3.855a.9.9,0,0,1-.342.439,4.821,4.821,0,0,1-.732.439,3.064,3.064,0,0,1-.927.146,1.555,1.555,0,0,1-1.415-.683,3.252,3.252,0,0,1-.1-2.1,4.046,4.046,0,0,1,1.025-2.1,2.39,2.39,0,0,1,1.806-.683A1.412,1.412,0,0,1,26.519,68.906Z" transform="translate(-10.17 -63.44)" fill="#010101"/>
    <path id="Path_5446" data-name="Path 5446" d="M52.841,60.988a2.338,2.338,0,0,0-.781-.342,4.394,4.394,0,0,0-1.22-.146,4.324,4.324,0,0,0-2.538.732,3.277,3.277,0,0,0-1.366,2.1,2.993,2.993,0,0,0,0,1.318,2.079,2.079,0,0,0,.732.976,6.635,6.635,0,0,0,1.659.781,4.451,4.451,0,0,1,1.171.537,1.034,1.034,0,0,1,.39.586,2.049,2.049,0,0,1-.049.927,2.366,2.366,0,0,1-.878,1.415,2.78,2.78,0,0,1-1.757.488,3.118,3.118,0,0,1-1.366-.293,2.809,2.809,0,0,1-.927-.732c-.049-.049-.1-.049-.146-.1a.179.179,0,0,0-.146.049,1.509,1.509,0,0,0-.537.732.539.539,0,0,0,.2.537,2.057,2.057,0,0,0,1.025.634,5.657,5.657,0,0,0,1.659.244,4.543,4.543,0,0,0,2.733-.83,3.929,3.929,0,0,0,1.464-2.294,3.448,3.448,0,0,0,0-1.415,2.642,2.642,0,0,0-.732-1.074,4.093,4.093,0,0,0-1.464-.732,4.64,4.64,0,0,1-1.269-.537,1.3,1.3,0,0,1-.488-.586,1.069,1.069,0,0,1,0-.781,2.17,2.17,0,0,1,.781-1.269,2.731,2.731,0,0,1,1.61-.439,2.333,2.333,0,0,1,1.9.83.179.179,0,0,0,.146.049h.146a.179.179,0,0,0,.146-.049,2.458,2.458,0,0,0,.439-.634.487.487,0,0,0-.2-.537C53.134,61.232,52.987,61.134,52.841,60.988Z" transform="translate(-23.072 -60.061)" fill="#010101"/>
    <path id="Path_5447" data-name="Path 5447" d="M66.857,67a3.69,3.69,0,0,0-1.9.488A4.612,4.612,0,0,0,63.441,68.9a5.133,5.133,0,0,0-.878,2.05,3.925,3.925,0,0,0,.293,2.879A2.491,2.491,0,0,0,65.2,74.906a3.907,3.907,0,0,0,2.782-1.074,5.285,5.285,0,0,0,1.513-2.879,3.915,3.915,0,0,0-.244-2.879A2.866,2.866,0,0,0,66.857,67ZM65.3,73.783a1.5,1.5,0,0,1-1.415-.683,3.375,3.375,0,0,1-.1-2.147,4.246,4.246,0,0,1,1.025-2.1,2.428,2.428,0,0,1,1.806-.732,1.416,1.416,0,0,1,1.415.683,3.31,3.31,0,0,1,.1,2.147,4.2,4.2,0,0,1-1.025,2.2A2.556,2.556,0,0,1,65.3,73.783Z" transform="translate(-31.964 -63.389)" fill="#010101"/>
    <path id="Path_5448" data-name="Path 5448" d="M81.469,59.6h-.2a.156.156,0,0,0-.146.146l-2.05,9.419a2.871,2.871,0,0,0-.1,1.025,1.113,1.113,0,0,0,.293.586,1.263,1.263,0,0,0,.683.2,2.881,2.881,0,0,0,.683-.1q.073,0,.146-.146l.049-.342a.173.173,0,0,0-.2-.2.494.494,0,0,1-.342-.1.254.254,0,0,1-.1-.2,2.8,2.8,0,0,1,.049-.586l1.9-8.736a.915.915,0,0,0-.1-.732A.666.666,0,0,0,81.469,59.6Z" transform="translate(-40.426 -59.6)" fill="#010101"/>
    <path id="Path_5449" data-name="Path 5449" d="M93.042,67.3h-.049c-.1,0-.146.049-.2.146l-1.171,5.417c0,.049-.1.2-.342.39a5.558,5.558,0,0,1-.927.439,4.151,4.151,0,0,1-1.074.2c-1.269,0-1.318-.634-1.366-.83a2.912,2.912,0,0,1,.1-1.074l.781-3.563a1,1,0,0,0-.1-.781.793.793,0,0,0-.683-.244h-.049c-.1,0-.146.049-.2.146L86.8,71.936a6,6,0,0,0-.2,1.415,1.618,1.618,0,0,0,.537,1.269,2.484,2.484,0,0,0,1.562.488,5.5,5.5,0,0,0,1.562-.244,5.928,5.928,0,0,0,.976-.439l-.1.39a.173.173,0,0,0,.2.2h.878c.1,0,.146-.049.2-.146l1.366-6.344a.808.808,0,0,0-.1-.781C93.579,67.349,93.335,67.3,93.042,67.3Z" transform="translate(-44.337 -63.542)" fill="#010101"/>
    <path id="Path_5450" data-name="Path 5450" d="M108.234,65h-2.2l.244-1.22a.915.915,0,0,0-.1-.732.7.7,0,0,0-.634-.244h-.2a.156.156,0,0,0-.146.146l-1.562,7.272a5.043,5.043,0,0,0-.146,1.318c.049.586.439,1.22,1.708,1.22a2.763,2.763,0,0,0,.878-.146,2.918,2.918,0,0,0,.781-.39c.293-.2.439-.342.439-.488.049-.2-.049-.39-.293-.683a.244.244,0,0,0-.293,0c-.146.146-.293.244-.39.342a1.883,1.883,0,0,1-.976.293.778.778,0,0,1-.586-.2,1.16,1.16,0,0,1-.049-1.025l.927-4.392h2.245c.1,0,.146-.049.2-.146l.146-.732a.179.179,0,0,0-.049-.146C108.331,65,108.283,65,108.234,65Z" transform="translate(-52.99 -61.238)" fill="#010101"/>
    <path id="Path_5451" data-name="Path 5451" d="M118.456,61.9a1.028,1.028,0,0,0-.634.244.905.905,0,0,0-.342.586.931.931,0,0,0,.1.634.7.7,0,0,0,.586.293,1.028,1.028,0,0,0,.634-.244.905.905,0,0,0,.342-.586.931.931,0,0,0-.1-.634A.7.7,0,0,0,118.456,61.9Z" transform="translate(-60.137 -60.778)" fill="#010101"/>
    <path id="Path_5452" data-name="Path 5452" d="M115.993,67.3h0c-.146,0-.2.049-.2.146l-1.22,5.661a3.057,3.057,0,0,0-.1,1.074,1.113,1.113,0,0,0,.293.586,1.221,1.221,0,0,0,.634.146,2.88,2.88,0,0,0,.683-.1q.073,0,.146-.146l.049-.342a.173.173,0,0,0-.2-.2,1.01,1.01,0,0,1-.39-.1.287.287,0,0,1-.1-.244,2.8,2.8,0,0,1,.049-.586l1.074-4.929c.049-.342.049-.586-.1-.732C116.578,67.349,116.334,67.3,115.993,67.3Z" transform="translate(-58.602 -63.542)" fill="#010101"/>
    <path id="Path_5453" data-name="Path 5453" d="M126.157,67a3.69,3.69,0,0,0-1.9.488,4.612,4.612,0,0,0-1.513,1.415,5.133,5.133,0,0,0-.878,2.05,3.925,3.925,0,0,0,.293,2.879,2.491,2.491,0,0,0,2.343,1.074,3.907,3.907,0,0,0,2.782-1.074,5.285,5.285,0,0,0,1.513-2.879h0a3.915,3.915,0,0,0-.244-2.879A2.866,2.866,0,0,0,126.157,67Zm1.318,3.9a4.2,4.2,0,0,1-1.025,2.2,2.428,2.428,0,0,1-1.806.732,1.5,1.5,0,0,1-1.415-.683,3.375,3.375,0,0,1-.1-2.147,4.246,4.246,0,0,1,1.025-2.1,2.428,2.428,0,0,1,1.806-.732,1.416,1.416,0,0,1,1.415.683A2.975,2.975,0,0,1,127.475,70.9Z" transform="translate(-62.324 -63.389)" fill="#010101"/>
    <path id="Path_5454" data-name="Path 5454" d="M144.932,67.439A2.477,2.477,0,0,0,143.371,67a4.685,4.685,0,0,0-1.61.293,5,5,0,0,0-1.025.488.554.554,0,0,0-.146-.39.793.793,0,0,0-.683-.244h-.049c-.1,0-.146.049-.2.146L138.1,74.467a.173.173,0,0,0,.2.2h.878c.1,0,.146-.049.2-.146l1.171-5.271.146-.293a3.652,3.652,0,0,1,.976-.537,3.594,3.594,0,0,1,1.171-.244c1.269,0,1.318.634,1.366.83a2.985,2.985,0,0,1-.1,1.074l-.927,4.392a.173.173,0,0,0,.2.2h.878c.1,0,.146-.049.2-.146l.927-4.392a6,6,0,0,0,.2-1.415A1.877,1.877,0,0,0,144.932,67.439Z" transform="translate(-70.704 -63.389)" fill="#010101"/>
    <path id="Path_5455" data-name="Path 5455" d="M160.679,67.683a1.973,1.973,0,0,0-.83-.488,4.2,4.2,0,0,0-1.171-.2,3.944,3.944,0,0,0-1.318.244,2.355,2.355,0,0,0-1.074.732A2.263,2.263,0,0,0,155.7,69.1a1.654,1.654,0,0,0,0,.976,1.5,1.5,0,0,0,.488.732,4.64,4.64,0,0,0,1.269.537,5.85,5.85,0,0,1,1.074.39.868.868,0,0,1,.342.39,1,1,0,0,1,0,.537,1.421,1.421,0,0,1-.586.878,2,2,0,0,1-1.22.342,2.667,2.667,0,0,1-1.806-.683.244.244,0,0,0-.293,0c-.146.146-.244.293-.342.39a.422.422,0,0,0-.146.293.539.539,0,0,0,.2.537,2.386,2.386,0,0,0,.927.39,5.319,5.319,0,0,0,1.269.146,3.609,3.609,0,0,0,2.05-.586,2.633,2.633,0,0,0,1.122-1.659,1.822,1.822,0,0,0,0-1.025,1.655,1.655,0,0,0-.439-.683,3.111,3.111,0,0,0-.683-.39l-.732-.293a2.781,2.781,0,0,1-.976-.39.769.769,0,0,1-.342-.342.66.66,0,0,1,0-.439,1.107,1.107,0,0,1,.537-.781,1.968,1.968,0,0,1,1.074-.293,1.607,1.607,0,0,1,1.562.83c.049.049.1.1.146.1h.146c.049,0,.1-.049.146-.049.1-.1.146-.244.244-.342a.527.527,0,0,0,.146-.342C160.972,68.122,160.972,67.927,160.679,67.683Z" transform="translate(-79.082 -63.389)" fill="#010101"/>
  </g>
  <path id="Path_5456" data-name="Path 5456" d="M41.346,2.3,37.1,18.551c.878,2.2,1.659,3.953,2.977,5.173L44.713,5.911l.049-.146a2.856,2.856,0,0,0,.1-.634c0-1.708-1.513-2.782-3.514-2.831" transform="translate(-18.994 -1.129)" fill="#010101"/>
  <path id="Path_5457" data-name="Path 5457" d="M10.123,22.9,7,34.808h4.343l1.806-6.881c-.83-2.294-1.659-4.051-3.026-5.027" transform="translate(-3.584 -11.676)" fill="#010101"/>
  <path id="Path_5458" data-name="Path 5458" d="M65.52,30.763H62.543c-.537,0-.878-.146-.927-.439a2.739,2.739,0,0,1,.146-1.318,7.1,7.1,0,0,1-2.1,1.366,7.458,7.458,0,0,1-3.319.634c-1.562,0-2.635-.293-3.221-.927a3.178,3.178,0,0,1-.83-2.44,10.869,10.869,0,0,1,.2-1.659c.1-.586.244-1.171.39-1.757l2.342-9.077c.049,0,.244-.049.537-.1A6.551,6.551,0,0,1,56.784,15a7.281,7.281,0,0,1,1.025.1,1.808,1.808,0,0,1,.878.39,1.437,1.437,0,0,1,.488.781,2.549,2.549,0,0,1-.1,1.318l-1.659,6.442a8.662,8.662,0,0,0-.293,1.366,2.649,2.649,0,0,0,0,1.074.944.944,0,0,0,.537.683,2.771,2.771,0,0,0,1.269.244,4.887,4.887,0,0,0,2.245-.488,2.181,2.181,0,0,0,1.22-1.269L65.129,15.2c.049,0,.244-.049.537-.1a6.55,6.55,0,0,1,1.025-.049,7.281,7.281,0,0,1,1.025.1,1.919,1.919,0,0,1,.83.439,1.545,1.545,0,0,1,.488.878,2.734,2.734,0,0,1-.1,1.366Z" transform="translate(-26.771 -7.631)" fill="#010101"/>
  <path id="Path_5459" data-name="Path 5459" d="M88.679,23.454a6.518,6.518,0,0,1,.049-1.366l.293-1.464L92.973,5.4l.488-.049c.146,0,.342-.049.488-.049h.537a7.281,7.281,0,0,1,1.025.1,1.471,1.471,0,0,1,.83.39,1.64,1.64,0,0,1,.488.781,2.549,2.549,0,0,1-.1,1.318l-.586,2.294h4.636L99.9,13.548H95.267l-1.806,7.027c-.39,1.513.049,2.294,1.269,2.294a3.064,3.064,0,0,0,.927-.146,4.222,4.222,0,0,0,.83-.342,3.112,3.112,0,0,0,.683-.39c.2-.146.342-.244.39-.293A9.929,9.929,0,0,1,98,22.966a1.661,1.661,0,0,1,0,.976,1.546,1.546,0,0,1-.586.83,3.437,3.437,0,0,1-1.171.732,7.36,7.36,0,0,1-1.659.537,8.981,8.981,0,0,1-2,.2,4.731,4.731,0,0,1-2.977-.781,3.342,3.342,0,0,1-.927-2" transform="translate(-45.391 -2.665)" fill="#010101"/>
  <path id="Path_5460" data-name="Path 5460" d="M119.457,16.752c.2-.2.439-.39.732-.634a6.7,6.7,0,0,1,.976-.634A6.5,6.5,0,0,1,122.336,15a3.823,3.823,0,0,1,1.269-.2,5.019,5.019,0,0,1,.83.049,3.657,3.657,0,0,1,.781.244.951.951,0,0,1,.488.488,1.36,1.36,0,0,1,.049.781,6.107,6.107,0,0,1-.781,1.659,17.866,17.866,0,0,1-1.122,1.61,3.037,3.037,0,0,0-.927-.683,3.3,3.3,0,0,0-3.123.342,2.473,2.473,0,0,0-1.074,1.415l-2.635,10.1H111.6l4.051-15.519.39-.049c.146,0,.293-.049.488-.049h.634a3.535,3.535,0,0,1,1.708.39c.39.146.586.586.586,1.171" transform="translate(-57.137 -7.528)" fill="#010101"/>
  <path id="Path_5461" data-name="Path 5461" d="M147.546,2.34a3.194,3.194,0,0,1-1.171,1.708,3.046,3.046,0,0,1-1.854.634A1.958,1.958,0,0,1,142.958,4a1.852,1.852,0,0,1-.244-1.708A3.4,3.4,0,0,1,143.837.583a3.136,3.136,0,0,1,1.9-.683,1.794,1.794,0,0,1,1.513.683,1.985,1.985,0,0,1,.293,1.757m-5.515,20.936a1.508,1.508,0,0,1-.634.1c-.293,0-.634.049-.976.049a3.1,3.1,0,0,1-1.952-.537c-.439-.342-.537-1.074-.244-2.2l3.416-13.128c.049,0,.244-.049.537-.1a6.551,6.551,0,0,1,1.025-.049,7.281,7.281,0,0,1,1.025.1,1.808,1.808,0,0,1,.878.39,1.437,1.437,0,0,1,.488.781A2.549,2.549,0,0,1,145.5,10Z" transform="translate(-70.682 0.1)" fill="#010101"/>
  <path id="Path_5462" data-name="Path 5462" d="M166.031,21.339a4.1,4.1,0,0,0,.049-2.538c-.244-.634-.878-.976-1.952-.976a3.553,3.553,0,0,0-2.44.927,5.388,5.388,0,0,0-1.464,2.587Zm-3.221,6.637a5.149,5.149,0,0,0,1.513-.2,4.506,4.506,0,0,0,1.22-.439,5.124,5.124,0,0,0,1.025-.586c.293-.2.586-.39.83-.586a5.306,5.306,0,0,1,.488,1.269,2.371,2.371,0,0,1,.1,1.269,2.466,2.466,0,0,1-1.171,1.318,7.875,7.875,0,0,1-2.2.878,12.038,12.038,0,0,1-3.075.39,11.462,11.462,0,0,1-2.928-.39,4.749,4.749,0,0,1-2.294-1.366A5.3,5.3,0,0,1,155.1,26.9a10.09,10.09,0,0,1,.342-4.2A11.279,11.279,0,0,1,157,19.143a11.418,11.418,0,0,1,2.342-2.489,9.374,9.374,0,0,1,2.782-1.415,10.071,10.071,0,0,1,2.879-.439,6.456,6.456,0,0,1,2.977.586,3.81,3.81,0,0,1,1.708,1.562,4.1,4.1,0,0,1,.586,2.2,8.512,8.512,0,0,1-.342,2.635,1.425,1.425,0,0,0-.1.439c-.049.2-.1.342-.146.537s-.146.39-.2.586a2.27,2.27,0,0,1-.146.439h-9.712a4.212,4.212,0,0,0,.342,2.977,2.978,2.978,0,0,0,2.831,1.22" transform="translate(-79.359 -7.528)" fill="#010101"/>
  <path id="Path_5463" data-name="Path 5463" d="M191.539,30.812H187l4-15.421.39-.049c.146,0,.293-.049.488-.049h.634a3.535,3.535,0,0,1,1.708.39A1.28,1.28,0,0,1,194.857,17a7.1,7.1,0,0,1,2.1-1.366A7.458,7.458,0,0,1,200.274,15c1.562,0,2.635.293,3.221.927a3.178,3.178,0,0,1,.83,2.44,10.87,10.87,0,0,1-.2,1.659c-.1.586-.244,1.171-.39,1.757l-2.391,9.126h-4.49l2.342-9.077a7.645,7.645,0,0,0,.293-1.366,1.985,1.985,0,0,0,0-1.074.944.944,0,0,0-.537-.683,2.771,2.771,0,0,0-1.269-.244,4.887,4.887,0,0,0-2.245.488,2.181,2.181,0,0,0-1.22,1.269Z" transform="translate(-95.74 -7.631)" fill="#010101"/>
  <path id="Path_5464" data-name="Path 5464" d="M170.6,67.044V66.8h1.122v.244h-.439v1.122h-.244V67.044Zm1.757-.2.342.976.342-.976h.39v1.318h-.244V67.093l-.39,1.074h-.2l-.39-1.074v1.074h-.244V66.849Z" transform="translate(-87.344 -34.151)" fill="#010101"/>
  <path id="Path_5465" data-name="Path 5465" d="M22.173,21.577a25.985,25.985,0,0,1-1.9-4.587c-.781-2.44-1.513-5.417-1.9-6.979-.781-3.221-2.05-6.149-5.856-7.272A17.823,17.823,0,0,0,7.874,2.3H6.8a14.288,14.288,0,0,1,4.295,4.636,15.468,15.468,0,0,1,1.366,4c3.075.049,4.343,1.464,6.1,4.636.39.683.781,1.415,1.171,2.1h0c-.537-.878-1.171-1.806-1.757-2.587-1.269-1.708-2.928-3.367-5.417-3.416h-2.44c2.733,1.513,2.928,5.271,4.685,7.711,1.562,2.245,2.977,4.1,6.979,4.88a21.227,21.227,0,0,0,2.538.293A12.679,12.679,0,0,1,22.173,21.577Z" transform="translate(-3.481 -1.129)" fill="url(#linear-gradient)"/>
</svg>
